<?xml version="1.0" encoding="utf-8"?>
<!-- Generator: Adobe Illustrator 23.0.1, SVG Export Plug-In . SVG Version: 6.00 Build 0)  -->
<svg version="1.1" id="Layer_1" xmlns="http://www.w3.org/2000/svg" xmlns:xlink="http://www.w3.org/1999/xlink" x="0px" y="0px"
	 viewBox="0 0 1024 1024" style="enable-background:new 0 0 1024 1024;" xml:space="preserve">
<style type="text/css">
	.st0{fill:#FFFFFF;}
</style>
<rect class="st0" width="1024" height="1024"/>
<g>
	<path d="M801.41,601.68c-43.68,0-79.08,35.41-79.08,79.08c0,43.68,35.41,79.08,79.08,79.08c43.68,0,79.08-35.41,79.08-79.08
		C880.49,637.08,845.09,601.68,801.41,601.68z M801.41,715.97c-19.45,0-35.21-15.76-35.21-35.21c0-19.45,15.76-35.21,35.21-35.21
		c19.45,0,35.21,15.76,35.21,35.21C836.62,700.2,820.86,715.97,801.41,715.97z"/>
	<path d="M864.2,432.84c-38.46-7.55-79.48-6.56-115.79-22.94c-35.47-16-61.62-51.32-94.57-72.69
		c-81.54-52.88-175.98-61.96-270.62-69.74c-51.07-4.2-102.33-4.01-153.51-1.6c-47.34,2.24-127.15-3.72-163.34,32.25
		c-24.69,24.55-5.11,59.28-4.97,88.72c0.08,16.15-5.56,30.48-14.86,43.47C1.01,493.94-44.77,704.42,84.97,704.42c0,0,4.9,0,13.67,0
		c-4.38-18.82-4.24-39.36,4.83-61.24c15.96-38.49,52.94-65.78,94.6-66.5c58.34-1.01,105.95,45.97,105.95,104.08
		c0,8.15-1.03,16.05-2.81,23.67h398.9c-4.36-18.71-4.24-39.12,4.66-60.87c15.78-38.58,52.71-65.99,94.38-66.86
		c58.52-1.23,106.34,45.83,106.34,104.07c0,8.16-1.03,16.05-2.81,23.67h80.85c17.91,0,32.85-13.66,34.44-31.5
		c2.34-26.15,5.31-59.36,5.46-61.1C1031.63,520.5,945.32,448.76,864.2,432.84z M158.44,492c-3.41-9.3-6.82-18.61-10.22-27.91
		c-7.56-20.64-18.43-51.42-13.78-76.64c7.63-41.34,40.92-36.38,62.03-37.9c27.91-2.02,55.9-0.61,83.72,3.42
		c38.3,5.55,76.89,21.41,108.02,59.32c7.01,8.54,13.68,17.82,19.95,27.74c9.57,15.12,18.41,32.58,24.01,51.98H158.44z M484.69,492
		c-5.57-10.34-11.15-20.69-16.72-31.03c-12.07-22.38-24.46-48.33-15.71-72.2c5.97-16.31,21.31-28.07,38.06-32.65
		c55.64-15.21,127.86,20.8,169.29,56.16c10,8.54,19.51,17.82,28.46,27.74c13.65,15.12,26.26,32.58,34.26,51.98
		C643.12,492,563.9,492,484.69,492z"/>
	<path d="M199.93,601.68c-43.68,0-79.08,35.41-79.08,79.08c0,43.68,35.41,79.08,79.08,79.08c43.68,0,79.08-35.41,79.08-79.08
		C279.01,637.08,243.61,601.68,199.93,601.68z M199.93,715.97c-19.45,0-35.21-15.76-35.21-35.21c0-19.45,15.76-35.21,35.21-35.21
		c19.45,0,35.21,15.76,35.21,35.21C235.14,700.2,219.38,715.97,199.93,715.97z"/>
</g>
</svg>
